<svg width="137" height="130" viewBox="0 0 137 130" fill="none" xmlns="http://www.w3.org/2000/svg">
<path d="M110.74 34.0103C109.737 24.405 118.27 30.8139 122.437 33.1313C129.227 35.6245 133.27 24.8525 127.421 21.1925C122.792 17.3568 115.709 26.8343 112.19 21.0487L113.826 6.37694C90.046 1.03885 110.74 12.8817 98.7649 18.8112C93.657 21.1286 86.3887 15.7905 89.4442 9.98894C90.4935 8.23088 93.6416 4.13941 90.2312 3.29235C87.9473 2.87681 71.3121 0.41554 68.6115 2.56109e-08L68.5961 0.111876C68.5498 0.0799115 68.5035 0.0479469 68.4726 0.0479469C67.9788 4.07549 67.3307 15.311 67.2381 15.7905C68.2566 25.3959 59.7229 19.003 55.541 16.6855C48.7511 14.2083 44.7234 24.9803 50.572 28.6243C55.2015 32.46 62.2846 22.9666 65.803 28.7362C65.911 29.2156 64.1672 40.8348 64.0901 43.7595C72.0682 42.3371 80.8951 40.4192 88.5491 43.9993C89.2127 42.6887 88.6726 41.4581 88.0708 40.2754C80.463 23.1743 109.15 28.3366 96.2032 41.7777C94.6755 43.5997 93.4564 47.9629 95.3236 49.4173C99.5056 49.4013 104.197 51.1753 108.178 50.7438C108.44 50.2963 108.703 49.8488 108.996 49.4332C109.49 45.6614 110.632 34.5058 110.74 34.0103Z" fill="url(#paint0_linear_538_3800)"/>
<path d="M70.9571 73.9821C70.7719 73.5346 70.7565 73.0871 70.8954 72.6236L70.8799 72.6076" fill="#A4A4A3"/>
<path d="M71.6803 75.0049C72.421 75.6602 73.4549 75.8999 74.4426 75.7401C73.4549 75.8999 72.421 75.6442 71.6803 75.0049Z" fill="#A4A4A3"/>
<path d="M96.5739 69.2992C97.3146 70.2741 97.9781 71.3449 98.5182 72.3199C97.9781 71.313 97.33 70.2581 96.5739 69.2992Z" fill="#A4A4A3"/>
<path d="M93.6401 66.63C93.6243 66.63 93.6085 66.63 93.6085 66.6142C93.6243 66.63 93.6559 66.63 93.6717 66.6458C93.6559 66.6458 93.6559 66.63 93.6401 66.63Z" fill="#A4A4A3"/>
<path d="M99.9983 75.2926C99.9983 75.2926 100.029 75.2447 100.06 75.1807C100.045 75.2127 100.014 75.2447 99.9983 75.2926C99.9829 75.2287 99.952 75.1807 99.9211 75.1328C99.9366 75.1647 99.952 75.1967 99.9674 75.2287C99.9829 75.2606 99.9983 75.2766 99.9983 75.2926Z" fill="#A4A4A3"/>
<path d="M71.0178 74.1738C71.1413 74.4136 71.3265 74.5894 71.4962 74.7812C71.311 74.5894 71.1413 74.3976 71.0178 74.1579C71.0178 74.1579 71.0178 74.1579 71.0178 74.1738Z" fill="#A4A4A3"/>
<path d="M85.9409 73.7264C86.0335 73.7423 86.1107 73.7743 86.2033 73.7903C86.1261 73.7423 86.0335 73.7264 85.9409 73.7264Z" fill="#A4A4A3"/>
<path d="M85.7568 73.6624C85.8648 73.6464 85.9729 73.6304 86.0654 73.6464L86.05 73.6464C85.9574 73.6464 85.834 73.6624 85.726 73.6784C85.7568 73.6784 85.7877 73.6943 85.8185 73.6943C85.7877 73.6784 85.7722 73.6624 85.7568 73.6624Z" fill="#A4A4A3"/>
<path d="M108.209 50.7278C108.193 50.7278 108.193 50.7438 108.209 50.7278C105.354 55.7303 104.305 63.0821 102.684 68.58C102.7 68.5481 102.7 68.5161 102.715 68.4841C104.305 62.9862 105.369 55.6983 108.209 50.7278Z" fill="#A4A4A3"/>
<path d="M86.6352 80.0713C86.5889 80.0713 87.7 79.7996 87.6382 79.7837C87.6691 79.7677 87.7 79.7677 87.7308 79.7517C87.345 79.8636 86.9592 79.9754 86.6043 80.0554C86.6043 80.0713 86.6197 80.0713 86.6352 80.0713C86.4809 80.1033 86.2957 80.1512 86.1259 80.1992C85.8173 80.2791 85.6167 80.3271 85.6167 80.3271C82.5458 81.0782 76.5892 82.2609 73.0708 82.0052C77.0213 82.2929 84.0581 80.7586 86.6352 80.0713Z" fill="#A4A4A3"/>
<path d="M88.5481 79.5119C88.4863 79.5279 88.4092 79.5599 88.332 79.5759C88.4092 79.5599 88.4709 79.5279 88.5481 79.5119Z" fill="#A4A4A3"/>
<path d="M117.698 45.166C113.67 44.9102 110.954 46.6523 109.01 49.4332C109.01 49.4492 109.01 49.4492 109.01 49.4652C110.969 46.6683 113.685 44.9102 117.698 45.166Z" fill="#A4A4A3"/>
<path d="M131.078 58.1276C125.723 57.9358 118.393 62.9862 114.55 65.8631C114.55 65.8631 114.55 65.8631 114.55 65.879C118.377 63.0022 125.723 57.9518 131.078 58.1276Z" fill="#A4A4A3"/>
<path d="M0.340966 116.751C0.850209 114.865 1.99215 113.251 3.38099 111.924C13.1955 102.526 16.9762 88.3342 27.9018 80.1193C34.738 74.8611 41.4199 69.507 49.0277 65.7032C52.222 62.6186 55.6632 58.5431 59.1045 54.6435C55.6478 58.5272 52.2066 62.6027 49.0122 65.7032C41.4044 69.507 34.7071 74.8611 27.8864 80.1193C16.9762 88.3501 13.1955 102.526 3.38099 111.94C1.99215 113.267 0.850209 114.881 0.340966 116.751C-0.600361 120.187 0.0631976 124.646 6.42102 127.299C0.0786288 124.646 -0.569498 120.187 0.340966 116.751Z" fill="#A4A4A3"/>
<path d="M75.1679 42.2572C72.452 42.2092 69.1805 43.6956 66.4954 47.0199C66.5108 47.0359 66.5262 47.0359 66.4954 47.0359C69.1805 43.7116 72.452 42.2092 75.1679 42.2572Z" fill="#A4A4A3"/>
<path d="M88.874 79.4001C88.8277 79.4161 88.7814 79.432 88.7351 79.448C88.7814 79.432 88.8123 79.4161 88.874 79.4001Z" fill="#A4A4A3"/>
<path d="M109.012 49.4492C109.012 49.4332 109.012 49.4332 109.012 49.4173C108.718 49.8328 108.441 50.2643 108.194 50.7278L108.209 50.7278C108.456 50.2963 108.718 49.8648 109.012 49.4492Z" fill="#A4A4A3"/>
<path opacity="0.25" d="M115.417 58.1116C115.417 58.1276 115.417 58.1436 115.401 58.1596C115.278 58.9267 115.185 59.7098 115.108 60.477L114.907 62.5387C114.907 62.5867 114.907 62.6666 114.892 62.7784C115.154 59.9656 115.37 57.1207 116.358 54.4836L116.343 54.4836C115.926 55.6663 115.617 56.881 115.417 58.1116Z" fill="url(#paint1_linear_538_3800)"/>
<path opacity="0.25" d="M71.0175 74.1419C71.0175 74.1579 71.0175 74.1579 71.0175 74.1419C70.9856 74.0939 70.9856 74.03 70.9696 73.9821C70.9856 74.046 70.9856 74.0939 71.0175 74.1419Z" fill="url(#paint2_linear_538_3800)"/>
<path opacity="0.25" d="M114.614 65.2397C114.567 65.5914 114.537 65.8471 114.537 65.8471C114.537 65.8631 114.537 65.8631 114.537 65.879C114.537 65.879 114.552 65.879 114.552 65.8631C114.676 65.048 114.768 64.2169 114.845 63.3858C114.814 63.5936 114.799 63.8333 114.768 64.0571C114.722 64.4726 114.675 64.8562 114.614 65.2397Z" fill="url(#paint3_linear_538_3800)"/>
<path opacity="0.25" d="M136.618 62.315C136.602 62.331 136.618 62.331 136.618 62.315C136.587 62.331 136.556 62.3629 136.525 62.3789C136.556 62.3629 136.587 62.3469 136.618 62.315C136.54 62.0752 136.417 61.8994 136.324 61.6757L136.618 62.315Z" fill="url(#paint4_linear_538_3800)"/>
<path opacity="0.25" d="M118.533 45.2618C118.255 45.2299 117.962 45.1819 117.699 45.1659C117.977 45.1819 118.255 45.2299 118.533 45.2618Z" fill="url(#paint5_linear_538_3800)"/>
<path opacity="0.25" d="M93.4875 66.5503C93.3641 66.5023 93.2406 66.4704 93.1172 66.4224C93.2869 66.4864 93.4721 66.5343 93.611 66.6142C93.5647 66.5982 93.5338 66.5663 93.4875 66.5503Z" fill="url(#paint6_linear_538_3800)"/>
<path opacity="0.25" d="M100.462 74.3177C100.277 74.7172 100.138 75.0209 100.061 75.1647C100.138 75.0369 100.2 74.925 100.262 74.7972L100.462 74.3177Z" fill="url(#paint7_linear_538_3800)"/>
<path opacity="0.25" d="M92.8208 66.3266C90.753 65.6873 88.5463 65.895 86.8796 66.0549C88.6388 65.9909 91.2005 65.911 92.8208 66.3266Z" fill="url(#paint8_linear_538_3800)"/>
<path opacity="0.25" d="M66.498 47.0199C66.4826 47.0199 66.4826 47.0199 66.498 47.0199C66.498 47.004 66.4826 46.988 66.5134 46.988C64.1061 49.1296 61.6062 51.8306 59.1217 54.6435C61.6062 51.8626 64.0907 49.1616 66.498 47.0199Z" fill="url(#paint9_linear_538_3800)"/>
<path opacity="0.25" d="M78.7013 53.9882C75.7384 62.299 65.5227 68.0846 60.7852 74.8451C59.4426 76.763 60.4611 79.496 62.6987 80.0074C65.2758 80.6147 68.146 81.1581 70.2293 81.5896C70.6151 81.6696 71.9268 81.9253 73.0533 81.9892C73.0533 81.9892 73.0533 81.9892 73.0687 81.9892C71.9422 81.9253 70.6151 81.6536 70.2447 81.5896C68.1615 81.1581 65.2912 80.6147 62.7141 80.0234C60.4765 79.496 59.4581 76.779 60.8006 74.8611C65.5227 68.0846 75.7538 62.299 78.7013 53.9882C82.6672 46.6683 79.7043 42.3211 75.1674 42.2412C79.6889 42.3371 82.6518 46.6843 78.7013 53.9882Z" fill="url(#paint10_linear_538_3800)"/>
<path opacity="0.25" d="M99.1651 73.5665C99.4583 74.1579 99.7052 74.6853 99.9212 75.1328C99.7515 74.7332 99.2423 73.6304 98.517 72.3199C98.6404 72.5277 98.7484 72.7514 98.8565 72.9592C98.9645 73.151 99.0725 73.3587 99.1651 73.5665Z" fill="url(#paint11_linear_538_3800)"/>
<path opacity="0.25" d="M75.5547 75.5323L74.6905 75.7241C74.6134 75.7401 74.5362 75.7241 74.4436 75.7401C74.5208 75.7241 74.6134 75.7401 74.6905 75.7241L75.5547 75.5323C76.2954 75.3565 77.0207 75.1488 77.7614 74.941C77.7768 74.941 77.7923 74.925 77.8077 74.925C77.0515 75.1328 76.2954 75.3565 75.5547 75.5323Z" fill="url(#paint12_linear_538_3800)"/>
<path opacity="0.25" d="M135.985 61.0364C134.844 59.0546 133.1 58.1916 131.078 58.1276C133.1 58.1916 134.828 59.0546 135.985 61.0364Z" fill="url(#paint13_linear_538_3800)"/>
<path opacity="0.25" d="M130.169 66.1188C124.197 69.8586 118.611 74.1579 113.935 79.7357C109.629 84.7701 103.549 86.72 97.6544 91.0032C91.5898 94.2157 89.3214 99.7455 83.8586 101.232C65.4333 105.531 43.3044 109.063 31.885 125.861C30.8665 127.347 29.5085 128.578 27.8419 129.153C26.345 129.664 24.6167 129.92 22.7649 130C24.6013 129.92 26.345 129.664 27.8419 129.153C29.5085 128.594 30.8665 127.347 31.885 125.861C43.3044 109.079 65.4333 105.547 83.8586 101.232C89.3368 99.7455 91.6053 94.2157 97.6544 91.0032C103.549 86.72 109.629 84.7701 113.935 79.7357C118.641 74.1259 124.289 69.7947 130.292 66.0389C130.261 66.0548 130.215 66.0868 130.169 66.1188Z" fill="url(#paint14_linear_538_3800)"/>
<path opacity="0.25" d="M96.5711 69.2993C95.6915 68.1326 94.6884 67.1417 93.6699 66.6462C94.7656 67.2535 95.7378 68.2125 96.5711 69.2993Z" fill="url(#paint15_linear_538_3800)"/>
<path d="M88.9327 76.4434L88.4543 75.868C88.7784 76.2835 89.1025 76.7151 89.4111 77.1785C89.1333 76.763 88.9327 76.4434 88.9327 76.4434Z" fill="#A4A4A3"/>
<path opacity="0.25" d="M88.9327 76.4434L88.4543 75.868C88.7784 76.2835 89.1025 76.7151 89.4111 77.1785C89.1333 76.763 88.9327 76.4434 88.9327 76.4434Z" fill="url(#paint16_linear_538_3800)"/>
<path d="M89.4586 77.2904C89.7827 77.7858 90.0604 78.2973 90.3074 78.8247C90.1067 78.3612 89.7673 77.7699 89.4586 77.2904Z" fill="#A4A4A3"/>
<path opacity="0.25" d="M89.4586 77.2904C89.7827 77.7858 90.0604 78.2973 90.3074 78.8247C90.1067 78.3612 89.7673 77.7699 89.4586 77.2904Z" fill="url(#paint17_linear_538_3800)"/>
<path d="M109.011 49.4492C108.918 50.1205 108.857 50.584 108.826 50.6639C108.625 50.6959 108.409 50.6959 108.209 50.7278C105.369 55.6983 104.32 62.9863 102.715 68.4842C103.147 67.1576 103.564 65.6873 103.764 64.4566C104.011 62.9223 105.848 60.8286 105.848 60.8286C105.848 60.8286 106.094 61.5479 107.19 60.4611C108.286 59.3743 110.261 58.5272 110.261 58.5272C110.261 58.5272 113.239 57.2646 113.795 57.2646C114.335 57.2646 116.125 55.4266 115.847 56.0499C115.724 56.3376 115.554 57.2806 115.431 58.1117C115.631 56.881 115.924 55.6664 116.372 54.4997C116.357 54.5156 116.341 54.5156 116.295 54.4997C116.14 54.4357 115.755 54.196 115.353 53.9243C114.443 53.301 114.181 52.0544 114.767 51.0954C115.986 49.1296 117.931 46.029 118.563 45.2779C118.285 45.2459 117.992 45.198 117.73 45.182C113.687 44.9103 110.971 46.6683 109.011 49.4492Z" fill="#A4A4A3"/>
<path opacity="0.25" d="M109.011 49.4492C108.918 50.1205 108.857 50.584 108.826 50.6639C108.625 50.6959 108.409 50.6959 108.209 50.7278C105.369 55.6983 104.32 62.9863 102.715 68.4842C103.147 67.1576 103.564 65.6873 103.764 64.4566C104.011 62.9223 105.848 60.8286 105.848 60.8286C105.848 60.8286 106.094 61.5479 107.19 60.4611C108.286 59.3743 110.261 58.5272 110.261 58.5272C110.261 58.5272 113.239 57.2646 113.795 57.2646C114.335 57.2646 116.125 55.4266 115.847 56.0499C115.724 56.3376 115.554 57.2806 115.431 58.1117C115.631 56.881 115.924 55.6664 116.372 54.4997C116.357 54.5156 116.341 54.5156 116.295 54.4997C116.14 54.4357 115.755 54.196 115.353 53.9243C114.443 53.301 114.181 52.0544 114.767 51.0954C115.986 49.1296 117.931 46.029 118.563 45.2779C118.285 45.2459 117.992 45.198 117.73 45.182C113.687 44.9103 110.971 46.6683 109.011 49.4492Z" fill="url(#paint18_linear_538_3800)"/>
<path d="M114.766 64.073C114.719 64.4886 114.658 64.9041 114.611 65.2398C114.673 64.8562 114.719 64.4726 114.766 64.073Z" fill="#A4A4A3"/>
<path opacity="0.25" d="M114.766 64.073C114.719 64.4886 114.658 64.9041 114.611 65.2398C114.673 64.8562 114.719 64.4726 114.766 64.073Z" fill="url(#paint19_linear_538_3800)"/>
<path d="M115.12 60.477C115.197 59.6939 115.29 58.9267 115.413 58.1596C115.305 58.8947 115.213 59.5181 115.213 59.5181L115.12 60.477Z" fill="#A4A4A3"/>
<path opacity="0.25" d="M115.12 60.477C115.197 59.6939 115.29 58.9267 115.413 58.1596C115.305 58.8947 115.213 59.5181 115.213 59.5181L115.12 60.477Z" fill="url(#paint20_linear_538_3800)"/>
<path d="M27.8403 129.153C29.5069 128.594 30.8649 127.347 31.8834 125.861C43.3028 109.079 65.4317 105.547 83.857 101.232C89.3352 99.7455 91.6037 94.2157 97.6529 91.0032C103.548 86.72 109.628 84.7701 113.933 79.7357C118.609 74.1579 124.211 69.8586 130.167 66.1188C129.704 66.3905 129.396 66.5823 129.38 66.6142C129.318 66.7101 129.272 65.6393 129.241 64.8402C129.226 64.3447 129.488 63.8972 129.92 63.6895C131.602 62.8744 135.723 60.8926 135.985 61.0364C134.828 59.0546 133.099 58.1915 131.078 58.1276C125.723 57.9518 118.377 63.0022 114.55 65.879C114.55 65.879 114.55 65.879 114.55 65.8631C114.55 65.8631 114.535 65.8631 114.535 65.879C114.535 65.8631 114.535 65.8631 114.535 65.8471L100.029 75.3086L100.245 74.8131C100.184 74.941 100.122 75.0529 100.045 75.1807C100.014 75.2447 99.983 75.2926 99.983 75.2926L99.9985 75.3246L90.3691 79.0005C90.3691 78.9845 90.3537 78.9845 90.3537 78.9685C89.9216 79.0964 89.397 79.2402 88.8877 79.3841C88.8723 79.3841 88.8568 79.4001 88.8414 79.4001L88.8569 79.4001C88.8106 79.416 88.7643 79.432 88.718 79.448C88.6562 79.464 88.6099 79.48 88.5328 79.5119C88.4556 79.5439 88.3785 79.5599 88.3167 79.5759C88.1161 79.6398 87.9155 79.7037 87.6995 79.7517C87.6686 79.7677 87.6378 79.7677 87.6069 79.7836C87.6686 79.7836 86.5575 80.0553 86.6038 80.0713C84.0422 80.7586 76.99 82.2929 73.0395 82.0052C73.0395 82.0052 73.0395 82.0052 73.024 82.0052C71.8975 81.9412 70.5704 81.6696 70.2001 81.6056C68.1168 81.1741 65.2465 80.6307 62.6694 80.0234C60.4319 79.496 59.4134 76.779 60.7559 74.8611C65.4934 68.0846 75.7246 62.315 78.672 54.0042C82.6225 46.7003 79.6596 42.3371 75.1382 42.2572C72.4222 42.2093 69.1507 43.7116 66.4656 47.0359C66.4965 47.0359 66.481 47.0359 66.4656 47.0199L66.4502 47.0359C64.0428 49.1775 61.5584 51.8785 59.0739 54.6754C55.6326 58.5591 52.1914 62.6506 48.997 65.7352C41.3893 69.539 34.692 74.909 27.8712 80.1512C16.9765 88.3502 13.2112 102.542 3.38125 111.94C1.9924 113.267 0.850464 114.881 0.341222 116.767C-0.584674 120.203 0.0788853 124.662 6.4367 127.315C9.98597 128.562 15.4025 129.824 20.4332 130L22.7788 130C24.6151 129.92 26.3435 129.664 27.8403 129.153ZM69.5211 46.2528L72.0055 43.1202L80.138 49.7529L77.6072 52.9973C76.0486 55.1869 73.0086 55.5225 71.0334 53.7325L69.9686 52.7736C68.1168 51.1114 67.9162 48.2026 69.5211 46.2528Z" fill="#A4A4A3"/>
<path opacity="0.25" d="M27.8403 129.153C29.5069 128.594 30.8649 127.347 31.8834 125.861C43.3028 109.079 65.4317 105.547 83.857 101.232C89.3352 99.7455 91.6037 94.2157 97.6529 91.0032C103.548 86.72 109.628 84.7701 113.933 79.7357C118.609 74.1579 124.211 69.8586 130.167 66.1188C129.704 66.3905 129.396 66.5823 129.38 66.6142C129.318 66.7101 129.272 65.6393 129.241 64.8402C129.226 64.3447 129.488 63.8972 129.92 63.6895C131.602 62.8744 135.723 60.8926 135.985 61.0364C134.828 59.0546 133.099 58.1915 131.078 58.1276C125.723 57.9518 118.377 63.0022 114.55 65.879C114.55 65.879 114.55 65.879 114.55 65.8631C114.55 65.8631 114.535 65.8631 114.535 65.879C114.535 65.8631 114.535 65.8631 114.535 65.8471L100.029 75.3086L100.245 74.8131C100.184 74.941 100.122 75.0529 100.045 75.1807C100.014 75.2447 99.983 75.2926 99.983 75.2926L99.9985 75.3246L90.3691 79.0005C90.3691 78.9845 90.3537 78.9845 90.3537 78.9685C89.9216 79.0964 89.397 79.2402 88.8877 79.3841C88.8723 79.3841 88.8568 79.4001 88.8414 79.4001L88.8569 79.4001C88.8106 79.416 88.7643 79.432 88.718 79.448C88.6562 79.464 88.6099 79.48 88.5328 79.5119C88.4556 79.5439 88.3785 79.5599 88.3167 79.5759C88.1161 79.6398 87.9155 79.7037 87.6995 79.7517C87.6686 79.7677 87.6378 79.7677 87.6069 79.7836C87.6686 79.7836 86.5575 80.0553 86.6038 80.0713C84.0422 80.7586 76.99 82.2929 73.0395 82.0052C73.0395 82.0052 73.0395 82.0052 73.024 82.0052C71.8975 81.9412 70.5704 81.6696 70.2001 81.6056C68.1168 81.1741 65.2465 80.6307 62.6694 80.0234C60.4319 79.496 59.4134 76.779 60.7559 74.8611C65.4934 68.0846 75.7246 62.315 78.672 54.0042C82.6225 46.7003 79.6596 42.3371 75.1382 42.2572C72.4222 42.2093 69.1507 43.7116 66.4656 47.0359C66.4965 47.0359 66.481 47.0359 66.4656 47.0199L66.4502 47.0359C64.0428 49.1775 61.5584 51.8785 59.0739 54.6754C55.6326 58.5591 52.1914 62.6506 48.997 65.7352C41.3893 69.539 34.692 74.909 27.8712 80.1512C16.9765 88.3502 13.2112 102.542 3.38125 111.94C1.9924 113.267 0.850464 114.881 0.341222 116.767C-0.584674 120.203 0.0788853 124.662 6.4367 127.315C9.98597 128.562 15.4025 129.824 20.4332 130L22.7788 130C24.6151 129.92 26.3435 129.664 27.8403 129.153ZM69.5211 46.2528L72.0055 43.1202L80.138 49.7529L77.6072 52.9973C76.0486 55.1869 73.0086 55.5225 71.0334 53.7325L69.9686 52.7736C68.1168 51.1114 67.9162 48.2026 69.5211 46.2528Z" fill="url(#paint21_linear_538_3800)"/>
<path d="M75.5555 75.5324C76.2962 75.3566 77.0523 75.1488 77.8085 74.925C78.6727 74.6054 79.7837 73.9661 79.8146 73.7743C79.9844 73.8223 81.0954 73.9981 81.5892 73.8862C81.5738 73.8862 81.6047 73.8862 81.5892 73.8862C82.6232 73.6464 83.5645 73.5026 84.5058 73.5026C84.5984 73.5026 84.6756 73.5186 84.7681 73.5186C84.8762 73.5026 84.9842 73.4866 85.0305 73.4866C85.1539 73.4706 85.5243 73.2789 85.6169 73.183C85.6169 73.183 85.694 73.6305 86.0798 73.6465C85.9872 73.6465 85.8792 73.6624 85.7712 73.6624C85.7866 73.6624 85.8021 73.6784 85.8175 73.6944C85.8638 73.7104 85.9101 73.7264 85.9564 73.7264C86.049 73.7423 86.1261 73.7583 86.2187 73.7903C86.265 73.8063 86.2959 73.8063 86.3422 73.8223C86.7434 73.9501 87.052 74.3017 87.3452 74.6054C87.731 75.0049 88.0859 75.4045 88.4254 75.82L87.7927 75.0689C87.7927 75.0689 91.2957 74.6054 92.2679 74.4615C93.2401 74.3177 96.0332 68.612 96.0332 68.612C96.0332 68.612 97.5146 70.3701 98.8881 72.9592C98.78 72.7514 98.672 72.5437 98.5486 72.3199C98.0085 71.345 97.3449 70.2742 96.6042 69.2993C95.7554 68.2125 94.7987 67.2535 93.703 66.6462C93.6876 66.6302 93.6567 66.6302 93.6413 66.6142C93.5024 66.5343 93.3173 66.4864 93.1475 66.4225C93.0395 66.3905 92.9469 66.3585 92.8389 66.3266C91.234 65.911 88.6569 65.9909 86.8977 66.0549C86.4348 66.1028 86.0181 66.1348 85.6632 66.1507C83.4102 66.2147 80.7714 66.7581 78.3332 67.5732C78.3332 68.0207 78.3177 68.676 78.2869 69.1235C78.256 69.4751 78.0554 69.7628 77.7622 69.9066C76.1882 70.6578 71.2655 73.0072 71.0803 72.7994C70.9877 72.7035 70.9569 72.6715 70.926 72.6396C70.7871 73.0871 70.8026 73.5506 70.9877 73.9981C71.0186 74.046 71.0186 74.1099 71.0495 74.1579C71.1729 74.3976 71.3581 74.5894 71.5278 74.7812C71.5896 74.8451 71.6359 74.941 71.713 75.0049C72.4537 75.6602 73.4876 75.9 74.4753 75.7401C74.5524 75.7241 74.6296 75.7401 74.7222 75.7241L75.5555 75.5324Z" fill="#A4A4A3"/>
<path opacity="0.25" d="M75.5555 75.5324C76.2962 75.3566 77.0523 75.1488 77.8085 74.925C78.6727 74.6054 79.7837 73.9661 79.8146 73.7743C79.9844 73.8223 81.0954 73.9981 81.5892 73.8862C81.5738 73.8862 81.6047 73.8862 81.5892 73.8862C82.6232 73.6464 83.5645 73.5026 84.5058 73.5026C84.5984 73.5026 84.6756 73.5186 84.7681 73.5186C84.8762 73.5026 84.9842 73.4866 85.0305 73.4866C85.1539 73.4706 85.5243 73.2789 85.6169 73.183C85.6169 73.183 85.694 73.6305 86.0798 73.6465C85.9872 73.6465 85.8792 73.6624 85.7712 73.6624C85.7866 73.6624 85.8021 73.6784 85.8175 73.6944C85.8638 73.7104 85.9101 73.7264 85.9564 73.7264C86.049 73.7423 86.1261 73.7583 86.2187 73.7903C86.265 73.8063 86.2959 73.8063 86.3422 73.8223C86.7434 73.9501 87.052 74.3017 87.3452 74.6054C87.731 75.0049 88.0859 75.4045 88.4254 75.82L87.7927 75.0689C87.7927 75.0689 91.2957 74.6054 92.2679 74.4615C93.2401 74.3177 96.0332 68.612 96.0332 68.612C96.0332 68.612 97.5146 70.3701 98.8881 72.9592C98.78 72.7514 98.672 72.5437 98.5486 72.3199C98.0085 71.345 97.3449 70.2742 96.6042 69.2993C95.7554 68.2125 94.7987 67.2535 93.703 66.6462C93.6876 66.6302 93.6567 66.6302 93.6413 66.6142C93.5024 66.5343 93.3173 66.4864 93.1475 66.4225C93.0395 66.3905 92.9469 66.3585 92.8389 66.3266C91.234 65.911 88.6569 65.9909 86.8977 66.0549C86.4348 66.1028 86.0181 66.1348 85.6632 66.1507C83.4102 66.2147 80.7714 66.7581 78.3332 67.5732C78.3332 68.0207 78.3177 68.676 78.2869 69.1235C78.256 69.4751 78.0554 69.7628 77.7622 69.9066C76.1882 70.6578 71.2655 73.0072 71.0803 72.7994C70.9877 72.7035 70.9569 72.6715 70.926 72.6396C70.7871 73.0871 70.8026 73.5506 70.9877 73.9981C71.0186 74.046 71.0186 74.1099 71.0495 74.1579C71.1729 74.3976 71.3581 74.5894 71.5278 74.7812C71.5896 74.8451 71.6359 74.941 71.713 75.0049C72.4537 75.6602 73.4876 75.9 74.4753 75.7401C74.5524 75.7241 74.6296 75.7401 74.7222 75.7241L75.5555 75.5324Z" fill="url(#paint22_linear_538_3800)"/>
<path d="M99.6116 74.5095C99.7042 74.7013 99.874 75.0529 99.9511 75.2127C99.9357 75.1967 99.9203 75.1488 99.9048 75.1168C99.6888 74.6693 99.4419 74.1419 99.1487 73.5506C99.3184 73.8702 99.4727 74.1898 99.6116 74.5095Z" fill="#A4A4A3"/>
<path opacity="0.25" d="M99.6116 74.5095C99.7042 74.7013 99.874 75.0529 99.9511 75.2127C99.9357 75.1967 99.9203 75.1488 99.9048 75.1168C99.6888 74.6693 99.4419 74.1419 99.1487 73.5506C99.3184 73.8702 99.4727 74.1898 99.6116 74.5095Z" fill="url(#paint23_linear_538_3800)"/>
<path d="M136.614 62.315L136.601 62.3286L136.614 62.315Z" fill="#A4A4A3"/>
<path opacity="0.25" d="M136.614 62.315L136.601 62.3286L136.614 62.315Z" fill="url(#paint24_linear_538_3800)"/>
<path d="M66.4822 47.0199C66.4983 47.0199 66.4983 47.0199 66.4822 47.0199C66.4983 47.0199 66.5307 47.0359 66.4822 47.0199Z" fill="#A4A4A3"/>
<path opacity="0.25" d="M66.4822 47.0199C66.4983 47.0199 66.4983 47.0199 66.4822 47.0199C66.4983 47.0199 66.5307 47.0359 66.4822 47.0199Z" fill="url(#paint25_linear_538_3800)"/>
<path d="M109.009 49.4492C108.732 49.8488 108.454 50.2803 108.207 50.7278C108.408 50.7118 108.624 50.6958 108.824 50.6639C108.855 50.5999 108.917 50.1365 109.009 49.4492Z" fill="#A4A4A3"/>
<path opacity="0.25" d="M109.009 49.4492C108.732 49.8488 108.454 50.2803 108.207 50.7278C108.408 50.7118 108.624 50.6958 108.824 50.6639C108.855 50.5999 108.917 50.1365 109.009 49.4492Z" fill="url(#paint26_linear_538_3800)"/>
<path opacity="0.25" d="M101.51 71.8884C101.942 70.9135 102.328 69.7947 102.667 68.596C102.081 70.402 101.51 71.8724 101.51 71.8724L100.46 74.3177C100.507 74.2058 100.568 74.078 100.63 73.9661C100.815 73.5346 101.078 72.8953 101.51 71.8884Z" fill="url(#paint27_linear_538_3800)"/>
<path opacity="0.25" d="M114.907 62.7785C114.891 62.9862 114.859 63.194 114.844 63.3858C114.875 63.162 114.891 62.9383 114.907 62.7785Z" fill="url(#paint28_linear_538_3800)"/>
<path d="M100.631 73.9661C100.893 73.3747 101.217 72.6715 101.511 71.9363C101.958 70.9134 102.359 69.7467 102.73 68.4841C102.714 68.5161 102.714 68.5481 102.699 68.58C102.344 69.7787 101.974 70.8975 101.541 71.8724C101.079 72.8952 100.816 73.5345 100.631 73.9661Z" fill="#A4A4A3"/>
<path opacity="0.25" d="M100.631 73.9661C100.893 73.3747 101.217 72.6715 101.511 71.9363C101.958 70.9134 102.359 69.7467 102.73 68.4841C102.714 68.5161 102.714 68.5481 102.699 68.58C102.344 69.7787 101.974 70.8975 101.541 71.8724C101.079 72.8952 100.816 73.5345 100.631 73.9661Z" fill="url(#paint29_linear_538_3800)"/>
<path opacity="0.25" d="M115.12 60.477C114.996 61.6757 114.888 62.8744 114.765 64.073C114.796 63.8333 114.826 63.6095 114.842 63.4018C114.857 63.194 114.888 62.9862 114.904 62.7945C114.919 62.6986 114.919 62.6027 114.919 62.5547L115.12 60.477Z" fill="url(#paint30_linear_538_3800)"/>
<path opacity="0.25" d="M115.12 60.477C114.996 61.6757 114.888 62.8744 114.765 64.073C114.796 63.8333 114.826 63.6095 114.842 63.4018C114.857 63.194 114.888 62.9862 114.904 62.7945C114.919 62.6986 114.919 62.6027 114.919 62.5547L115.12 60.477Z" fill="url(#paint31_linear_538_3800)"/>
<path opacity="0.25" d="M114.616 65.2397C114.585 65.4475 114.569 65.6393 114.537 65.847C114.537 65.847 114.569 65.5913 114.616 65.2397Z" fill="url(#paint32_linear_538_3800)"/>
<path opacity="0.25" d="M114.616 65.2397C114.585 65.4475 114.569 65.6393 114.537 65.847C114.537 65.847 114.569 65.5913 114.616 65.2397Z" fill="url(#paint33_linear_538_3800)"/>
<path opacity="0.25" d="M100.629 73.9661C100.567 74.0939 100.521 74.2058 100.459 74.3177L100.259 74.7971C100.351 74.6213 100.444 74.3816 100.629 73.9661Z" fill="url(#paint34_linear_538_3800)"/>
<path opacity="0.25" d="M100.629 73.9661C100.567 74.0939 100.521 74.2058 100.459 74.3177L100.259 74.7971C100.351 74.6213 100.444 74.3816 100.629 73.9661Z" fill="url(#paint35_linear_538_3800)"/>
<path d="M114.768 64.073C114.891 62.8743 114.999 61.6757 115.122 60.477L115.215 59.5181C115.215 59.5181 115.308 58.8788 115.416 58.1596C115.416 58.1436 115.416 58.1276 115.431 58.1116C115.57 57.2805 115.724 56.3216 115.848 56.0499C116.11 55.4266 114.335 57.2646 113.795 57.2646C113.255 57.2646 110.262 58.5272 110.262 58.5272C110.262 58.5272 108.286 59.3742 107.191 60.461C106.095 61.5478 105.848 60.8286 105.848 60.8286C105.848 60.8286 104.012 62.9223 103.765 64.4566C103.564 65.6872 103.148 67.1576 102.715 68.4841C102.345 69.7467 101.959 70.9134 101.496 71.9363C101.203 72.6715 100.879 73.3747 100.617 73.9661C100.447 74.3816 100.339 74.6213 100.246 74.8131L100.03 75.3086L114.536 65.847C114.567 65.6553 114.582 65.4475 114.613 65.2397C114.66 64.9041 114.706 64.4886 114.768 64.073Z" fill="#A4A4A3"/>
<path opacity="0.25" d="M114.768 64.073C114.891 62.8743 114.999 61.6757 115.122 60.477L115.215 59.5181C115.215 59.5181 115.308 58.8788 115.416 58.1596C115.416 58.1436 115.416 58.1276 115.431 58.1116C115.57 57.2805 115.724 56.3216 115.848 56.0499C116.11 55.4266 114.335 57.2646 113.795 57.2646C113.255 57.2646 110.262 58.5272 110.262 58.5272C110.262 58.5272 108.286 59.3742 107.191 60.461C106.095 61.5478 105.848 60.8286 105.848 60.8286C105.848 60.8286 104.012 62.9223 103.765 64.4566C103.564 65.6872 103.148 67.1576 102.715 68.4841C102.345 69.7467 101.959 70.9134 101.496 71.9363C101.203 72.6715 100.879 73.3747 100.617 73.9661C100.447 74.3816 100.339 74.6213 100.246 74.8131L100.03 75.3086L114.536 65.847C114.567 65.6553 114.582 65.4475 114.613 65.2397C114.66 64.9041 114.706 64.4886 114.768 64.073Z" fill="url(#paint36_linear_538_3800)"/>
<path opacity="0.25" d="M114.768 64.073C114.891 62.8743 114.999 61.6757 115.122 60.477L115.215 59.5181C115.215 59.5181 115.308 58.8788 115.416 58.1596C115.416 58.1436 115.416 58.1276 115.431 58.1116C115.57 57.2805 115.724 56.3216 115.848 56.0499C116.11 55.4266 114.335 57.2646 113.795 57.2646C113.255 57.2646 110.262 58.5272 110.262 58.5272C110.262 58.5272 108.286 59.3742 107.191 60.461C106.095 61.5478 105.848 60.8286 105.848 60.8286C105.848 60.8286 104.012 62.9223 103.765 64.4566C103.564 65.6872 103.148 67.1576 102.715 68.4841C102.345 69.7467 101.959 70.9134 101.496 71.9363C101.203 72.6715 100.879 73.3747 100.617 73.9661C100.447 74.3816 100.339 74.6213 100.246 74.8131L100.03 75.3086L114.536 65.847C114.567 65.6553 114.582 65.4475 114.613 65.2397C114.66 64.9041 114.706 64.4886 114.768 64.073Z" fill="url(#paint37_linear_538_3800)"/>
<path d="M85.9394 73.7264C85.8931 73.7104 85.8468 73.6944 85.8005 73.6944C85.816 73.6944 85.816 73.7104 85.8314 73.7104C85.8777 73.6944 85.9086 73.7104 85.9394 73.7264Z" fill="#A3A3A3"/>
<path d="M90.3707 78.9685C90.3553 78.9206 90.3244 78.8566 90.309 78.8087C90.0621 78.2813 89.7843 77.7698 89.4602 77.2744C89.4448 77.2424 89.414 77.2105 89.3985 77.1785C89.0899 76.731 88.7813 76.2835 88.4418 75.868L88.38 75.804C88.0405 75.3885 87.701 74.941 87.3153 74.5574C87.0221 74.2697 86.698 73.9501 86.3122 73.8062C86.2659 73.7903 86.235 73.7903 86.1887 73.7743C86.0962 73.7423 86.019 73.7263 85.9264 73.7103C85.8955 73.7103 85.8493 73.6944 85.8184 73.6944C85.803 73.6944 85.7875 73.6784 85.7875 73.6784C85.7567 73.6784 85.7258 73.6624 85.6949 73.6624C85.6795 73.6624 85.7258 73.6624 85.6949 73.6624C84.8153 73.7583 82.5469 74.014 80.4173 74.4775C81.1426 74.7492 80.5408 75.7721 80.4173 75.788C80.4173 75.788 76.8526 76.763 75.4947 77.0347C75.4947 77.1306 75.4792 77.2105 75.4947 77.3064C76.0193 78.9685 76.8372 79.0324 78.1798 79.1283C78.2723 79.1283 78.4575 79.1443 78.6581 79.1283C78.9822 79.1124 82.408 78.7927 82.7012 78.2813C82.7321 78.521 84.9851 78.8247 86.8832 79.0484C86.8986 79.0484 86.9295 79.0484 86.9449 79.0644C86.9758 79.0644 87.0066 79.0644 87.0221 79.0644C87.5004 79.1283 87.7473 78.7927 87.8399 78.6808C87.8399 78.6808 87.9788 79.1443 88.3955 79.2402C88.4418 79.2562 88.4726 79.2722 88.5343 79.2722C88.735 79.3041 88.9047 79.3201 89.0436 79.3521C88.9973 79.3681 88.9356 79.4 88.8738 79.416C89.414 79.2402 89.9386 79.0964 90.3707 78.9685Z" fill="#A3A3A3"/>
<path d="M100.001 75.293C100.001 75.277 99.9851 75.2609 99.969 75.2127C99.9851 75.2609 100.001 75.293 100.001 75.293Z" fill="#A4A4A3"/>
<path opacity="0.3" d="M100.001 75.293C100.001 75.277 99.9851 75.2609 99.969 75.2127C99.9851 75.2609 100.001 75.293 100.001 75.293Z" fill="url(#paint38_linear_538_3800)"/>
<path opacity="0.25" d="M98.8549 72.9592C98.9629 73.167 99.0709 73.3747 99.1635 73.5665C99.0709 73.3588 98.9629 73.151 98.8549 72.9592Z" fill="url(#paint39_linear_538_3800)"/>
<path opacity="0.3" d="M98.8549 72.9592C98.9629 73.167 99.0709 73.3747 99.1635 73.5665C99.0709 73.3588 98.9629 73.151 98.8549 72.9592Z" fill="url(#paint40_linear_538_3800)"/>
<path d="M99.9654 75.2287C99.8882 75.0529 99.703 74.7172 99.6259 74.5255C99.487 74.1898 99.3327 73.8862 99.1784 73.5825C99.0858 73.3747 98.9777 73.1829 98.8697 72.9752C97.4963 70.386 96.0149 68.628 96.0149 68.628C96.0149 68.628 93.2218 74.3337 92.2496 74.4775C91.2774 74.6214 87.7744 75.0848 87.7744 75.0848L88.4071 75.836C88.4225 75.852 88.438 75.884 88.4688 75.8999L88.9472 76.4753C88.9472 76.4753 89.1633 76.7949 89.4256 77.2105C89.441 77.2265 89.441 77.2425 89.4565 77.2425C89.4719 77.2584 89.4719 77.2904 89.4873 77.3064C89.7805 77.7858 90.1354 78.3772 90.3361 78.8407C90.3669 78.8886 90.3978 78.9366 90.4132 79.0005L90.3978 79.0005C90.3978 79.0005 90.4132 79.0165 90.4132 79.0325L100.043 75.3565C100.043 75.3565 100.027 75.3406 100.027 75.3246C99.9962 75.2926 99.9808 75.2606 99.9654 75.2287Z" fill="#A4A4A3"/>
<path opacity="0.25" d="M99.9654 75.2287C99.8882 75.0529 99.703 74.7172 99.6259 74.5255C99.487 74.1898 99.3327 73.8862 99.1784 73.5825C99.0858 73.3747 98.9777 73.1829 98.8697 72.9752C97.4963 70.386 96.0149 68.628 96.0149 68.628C96.0149 68.628 93.2218 74.3337 92.2496 74.4775C91.2774 74.6214 87.7744 75.0848 87.7744 75.0848L88.4071 75.836C88.4225 75.852 88.438 75.884 88.4688 75.8999L88.9472 76.4753C88.9472 76.4753 89.1633 76.7949 89.4256 77.2105C89.441 77.2265 89.441 77.2425 89.4565 77.2425C89.4719 77.2584 89.4719 77.2904 89.4873 77.3064C89.7805 77.7858 90.1354 78.3772 90.3361 78.8407C90.3669 78.8886 90.3978 78.9366 90.4132 79.0005L90.3978 79.0005C90.3978 79.0005 90.4132 79.0165 90.4132 79.0325L100.043 75.3565C100.043 75.3565 100.027 75.3406 100.027 75.3246C99.9962 75.2926 99.9808 75.2606 99.9654 75.2287Z" fill="url(#paint41_linear_538_3800)"/>
<path opacity="0.3" d="M99.9654 75.2287C99.8882 75.0529 99.703 74.7172 99.6259 74.5255C99.487 74.1898 99.3327 73.8862 99.1784 73.5825C99.0858 73.3747 98.9777 73.1829 98.8697 72.9752C97.4963 70.386 96.0149 68.628 96.0149 68.628C96.0149 68.628 93.2218 74.3337 92.2496 74.4775C91.2774 74.6214 87.7744 75.0848 87.7744 75.0848L88.4071 75.836C88.4225 75.852 88.438 75.884 88.4688 75.8999L88.9472 76.4753C88.9472 76.4753 89.1633 76.7949 89.4256 77.2105C89.441 77.2265 89.441 77.2425 89.4565 77.2425C89.4719 77.2584 89.4719 77.2904 89.4873 77.3064C89.7805 77.7858 90.1354 78.3772 90.3361 78.8407C90.3669 78.8886 90.3978 78.9366 90.4132 79.0005L90.3978 79.0005C90.3978 79.0005 90.4132 79.0165 90.4132 79.0325L100.043 75.3565C100.043 75.3565 100.027 75.3406 100.027 75.3246C99.9962 75.2926 99.9808 75.2606 99.9654 75.2287Z" fill="url(#paint42_linear_538_3800)"/>
<path d="M90.3054 78.8247C90.3374 78.8726 90.3533 78.9365 90.3693 78.9845L90.3853 78.9845C90.3693 78.9206 90.3214 78.8726 90.3054 78.8247Z" fill="#A3A3A3"/>
<path opacity="0.3" d="M90.3054 78.8247C90.3374 78.8726 90.3533 78.9365 90.3693 78.9845L90.3853 78.9845C90.3693 78.9206 90.3214 78.8726 90.3054 78.8247Z" fill="url(#paint43_linear_538_3800)"/>
<path d="M89.4298 77.2266C89.4136 77.2105 89.4136 77.1945 89.3975 77.1945C89.4136 77.2266 89.4459 77.2587 89.4621 77.2909C89.4459 77.2587 89.4459 77.2427 89.4298 77.2266Z" fill="#A3A3A3"/>
<path opacity="0.3" d="M89.4298 77.2266C89.4136 77.2105 89.4136 77.1945 89.3975 77.1945C89.4136 77.2266 89.4459 77.2587 89.4621 77.2909C89.4459 77.2587 89.4459 77.2427 89.4298 77.2266Z" fill="url(#paint44_linear_538_3800)"/>
<path d="M88.3929 75.804L88.4561 75.8672C88.4403 75.8514 88.4087 75.8356 88.3929 75.804Z" fill="#A3A3A3"/>
<path opacity="0.3" d="M88.3929 75.804L88.4561 75.8672C88.4403 75.8514 88.4087 75.8356 88.3929 75.804Z" fill="url(#paint45_linear_538_3800)"/>
<path d="M71.0348 53.7485C73.01 55.5385 76.05 55.2029 77.6086 53.0133L80.1394 49.7689L72.007 43.1362L69.5225 46.2688C67.9176 48.2026 68.1182 51.1114 69.97 52.7895L71.0348 53.7485Z" fill="#A4A4A3"/>
<path opacity="0.25" d="M71.0348 53.7485C73.01 55.5385 76.05 55.2029 77.6086 53.0133L80.1394 49.7689L72.007 43.1362L69.5225 46.2688C67.9176 48.2026 68.1182 51.1114 69.97 52.7895L71.0348 53.7485Z" fill="url(#paint46_linear_538_3800)"/>
<path opacity="0.25" d="M71.0348 53.7485C73.01 55.5385 76.05 55.2029 77.6086 53.0133L80.1394 49.7689L72.007 43.1362L69.5225 46.2688C67.9176 48.2026 68.1182 51.1114 69.97 52.7895L71.0348 53.7485Z" fill="url(#paint47_linear_538_3800)"/>
<path opacity="0.25" d="M71.0348 53.7485C73.01 55.5385 76.05 55.2029 77.6086 53.0133L80.1394 49.7689L72.007 43.1362L69.5225 46.2688C67.9176 48.2026 68.1182 51.1114 69.97 52.7895L71.0348 53.7485Z" fill="url(#paint48_linear_538_3800)"/>
<path opacity="0.25" d="M136.51 62.3789C134.411 63.5456 132.343 64.7603 130.306 66.0229C132.019 65.016 135.599 62.9703 136.51 62.3789Z" fill="url(#paint49_linear_538_3800)"/>
<path opacity="0.25" d="M136 61.0364C136.108 61.2282 136.201 61.4679 136.309 61.6917L136 61.0364Z" fill="url(#paint50_linear_538_3800)"/>
<path opacity="0.25" d="M130.166 66.1188C130.212 66.0868 130.258 66.0709 130.305 66.0389C132.342 64.7603 134.409 63.5616 136.508 62.3949C136.539 62.3789 136.57 62.347 136.601 62.331C134.425 63.5456 132.28 64.7923 130.166 66.1188Z" fill="url(#paint51_linear_538_3800)"/>
<path opacity="0.25" d="M130.166 66.1188C130.212 66.0868 130.258 66.0709 130.305 66.0389C132.342 64.7603 134.409 63.5616 136.508 62.3949C136.539 62.3789 136.57 62.347 136.601 62.331C134.425 63.5456 132.28 64.7923 130.166 66.1188Z" fill="url(#paint52_linear_538_3800)"/>
<path opacity="0.25" d="M136.619 62.315L136.326 61.6757C136.218 61.4519 136.126 61.2282 136.002 61.0204L135.987 61.0204C136.218 61.4359 136.434 61.8355 136.619 62.315Z" fill="url(#paint53_linear_538_3800)"/>
<path opacity="0.25" d="M136.619 62.315L136.326 61.6757C136.218 61.4519 136.126 61.2282 136.002 61.0204L135.987 61.0204C136.218 61.4359 136.434 61.8355 136.619 62.315Z" fill="url(#paint54_linear_538_3800)"/>
<path d="M136.618 62.315C136.432 61.8355 136.216 61.42 135.985 61.0364C135.723 60.8926 131.602 62.8744 129.92 63.6895C129.488 63.8972 129.226 64.3447 129.241 64.8402C129.272 65.6393 129.318 66.7101 129.38 66.6142C129.396 66.5823 129.704 66.3905 130.167 66.1188C132.281 64.7923 134.426 63.5456 136.618 62.315C136.618 62.331 136.602 62.331 136.618 62.315Z" fill="#A4A4A3"/>
<path opacity="0.25" d="M136.618 62.315C136.432 61.8355 136.216 61.42 135.985 61.0364C135.723 60.8926 131.602 62.8744 129.92 63.6895C129.488 63.8972 129.226 64.3447 129.241 64.8402C129.272 65.6393 129.318 66.7101 129.38 66.6142C129.396 66.5823 129.704 66.3905 130.167 66.1188C132.281 64.7923 134.426 63.5456 136.618 62.315C136.618 62.331 136.602 62.331 136.618 62.315Z" fill="url(#paint55_linear_538_3800)"/>
<path opacity="0.25" d="M136.618 62.315C136.432 61.8355 136.216 61.42 135.985 61.0364C135.723 60.8926 131.602 62.8744 129.92 63.6895C129.488 63.8972 129.226 64.3447 129.241 64.8402C129.272 65.6393 129.318 66.7101 129.38 66.6142C129.396 66.5823 129.704 66.3905 130.167 66.1188C132.281 64.7923 134.426 63.5456 136.618 62.315C136.618 62.331 136.602 62.331 136.618 62.315Z" fill="url(#paint56_linear_538_3800)"/>
<path d="M70.8951 72.6396C70.926 72.6715 70.9569 72.7035 71.0495 72.7994C71.2501 72.9912 76.1573 70.6578 77.7313 69.9066C78.04 69.7627 78.2406 69.4591 78.256 69.1235C78.2869 68.6759 78.3177 68.0207 78.3023 67.5732C74.645 68.8198 71.4815 70.7217 70.8951 72.6396Z" fill="#A4A4A3"/>
<path opacity="0.25" d="M70.8951 72.6396C70.926 72.6715 70.9569 72.7035 71.0495 72.7994C71.2501 72.9912 76.1573 70.6578 77.7313 69.9066C78.04 69.7627 78.2406 69.4591 78.256 69.1235C78.2869 68.6759 78.3177 68.0207 78.3023 67.5732C74.645 68.8198 71.4815 70.7217 70.8951 72.6396Z" fill="url(#paint57_linear_538_3800)"/>
<path opacity="0.25" d="M70.8951 72.6396C70.926 72.6715 70.9569 72.7035 71.0495 72.7994C71.2501 72.9912 76.1573 70.6578 77.7313 69.9066C78.04 69.7627 78.2406 69.4591 78.256 69.1235C78.2869 68.6759 78.3177 68.0207 78.3023 67.5732C74.645 68.8198 71.4815 70.7217 70.8951 72.6396Z" fill="url(#paint58_linear_538_3800)"/>
<path opacity="0.25" d="M70.8951 72.6396C70.926 72.6715 70.9569 72.7035 71.0495 72.7994C71.2501 72.9912 76.1573 70.6578 77.7313 69.9066C78.04 69.7627 78.2406 69.4591 78.256 69.1235C78.2869 68.6759 78.3177 68.0207 78.3023 67.5732C74.645 68.8198 71.4815 70.7217 70.8951 72.6396Z" fill="url(#paint59_linear_538_3800)"/>
<path opacity="0.25" d="M70.8951 72.6396C70.926 72.6715 70.9569 72.7035 71.0495 72.7994C71.2501 72.9912 76.1573 70.6578 77.7313 69.9066C78.04 69.7627 78.2406 69.4591 78.256 69.1235C78.2869 68.6759 78.3177 68.0207 78.3023 67.5732C74.645 68.8198 71.4815 70.7217 70.8951 72.6396Z" fill="url(#paint60_linear_538_3800)"/>
<path d="M80.4455 74.4775C77.961 75.0369 75.6 75.868 75.5228 77.0347C76.8808 76.747 80.4455 75.788 80.4455 75.788C80.569 75.7721 81.1708 74.7492 80.4455 74.4775Z" fill="#A3A3A3"/>
<path opacity="0.25" d="M80.4455 74.4775C77.961 75.0369 75.6 75.868 75.5228 77.0347C76.8808 76.747 80.4455 75.788 80.4455 75.788C80.569 75.7721 81.1708 74.7492 80.4455 74.4775Z" fill="url(#paint61_linear_538_3800)"/>
<path opacity="0.25" d="M80.4455 74.4775C77.961 75.0369 75.6 75.868 75.5228 77.0347C76.8808 76.747 80.4455 75.788 80.4455 75.788C80.569 75.7721 81.1708 74.7492 80.4455 74.4775Z" fill="url(#paint62_linear_538_3800)"/>
<path opacity="0.25" d="M80.4455 74.4775C77.961 75.0369 75.6 75.868 75.5228 77.0347C76.8808 76.747 80.4455 75.788 80.4455 75.788C80.569 75.7721 81.1708 74.7492 80.4455 74.4775Z" fill="url(#paint63_linear_538_3800)"/>
<path d="M86.1253 80.1832C85.9556 80.2311 85.8013 80.2631 85.6161 80.311C85.6161 80.311 85.8167 80.2631 86.1253 80.1832Z" fill="#1B2551"/>
<path d="M88.3475 79.5759C88.1314 79.6398 87.9617 79.6877 87.7302 79.7517C87.9463 79.6877 88.1469 79.6398 88.3475 79.5759Z" fill="#1B2551"/>
<path d="M88.7317 79.448C88.67 79.464 88.6082 79.496 88.5465 79.512C88.6082 79.48 88.67 79.464 88.7317 79.448Z" fill="#1B2551"/>
<path d="M88.8579 79.3998C88.8732 79.3998 88.8884 79.384 88.9037 79.384C88.8884 79.384 88.8579 79.3998 88.8579 79.3998Z" fill="#1B2551"/>
<path d="M86.9127 79.0484C86.945 79.0484 86.9612 79.0485 86.9773 79.0645C86.945 79.0485 86.9288 79.0484 86.9127 79.0484Z" fill="#1B2551"/>
<path opacity="0.25" d="M116.37 54.4997C116.37 54.4837 116.402 54.3878 116.466 54.2599C116.434 54.3398 116.402 54.4198 116.37 54.4997Z" fill="url(#paint64_linear_538_3800)"/>
<path opacity="0.25" d="M116.357 54.4837C116.388 54.4038 116.419 54.3239 116.45 54.2439C116.45 54.2439 116.45 54.2439 116.45 54.228C116.465 54.18 116.481 54.1321 116.511 54.0841C116.434 54.3079 116.357 54.4677 116.357 54.4837Z" fill="url(#paint65_linear_538_3800)"/>
<path opacity="0.25" d="M116.357 54.4837C116.388 54.4038 116.419 54.3239 116.45 54.2439C116.45 54.2439 116.45 54.2439 116.45 54.228C116.465 54.18 116.481 54.1321 116.511 54.0841C116.434 54.3079 116.357 54.4677 116.357 54.4837Z" fill="url(#paint66_linear_538_3800)"/>
<path d="M116.278 54.4836C116.327 54.4997 116.343 54.4997 116.359 54.4836C116.359 54.4997 116.327 54.4997 116.278 54.4836Z" fill="#A4A4A3"/>
<path opacity="0.25" d="M116.278 54.4836C116.327 54.4997 116.343 54.4997 116.359 54.4836C116.359 54.4997 116.327 54.4997 116.278 54.4836Z" fill="url(#paint67_linear_538_3800)"/>
<path opacity="0.25" d="M116.278 54.4836C116.327 54.4997 116.343 54.4997 116.359 54.4836C116.359 54.4997 116.327 54.4997 116.278 54.4836Z" fill="url(#paint68_linear_538_3800)"/>
<path d="M114.751 51.0794C115.97 49.1136 117.914 46.013 118.547 45.2619C118.547 45.2619 118.547 45.2619 118.532 45.2619C117.899 46.013 115.955 49.0976 114.751 51.0794C114.149 52.0224 114.427 53.285 115.337 53.9083C115.739 54.18 116.124 54.4197 116.279 54.4837C116.109 54.4197 115.739 54.18 115.337 53.9083C114.427 53.285 114.165 52.0224 114.751 51.0794Z" fill="#A4A4A3"/>
<path opacity="0.25" d="M114.751 51.0794C115.97 49.1136 117.914 46.013 118.547 45.2619C118.547 45.2619 118.547 45.2619 118.532 45.2619C117.899 46.013 115.955 49.0976 114.751 51.0794C114.149 52.0224 114.427 53.285 115.337 53.9083C115.739 54.18 116.124 54.4197 116.279 54.4837C116.109 54.4197 115.739 54.18 115.337 53.9083C114.427 53.285 114.165 52.0224 114.751 51.0794Z" fill="url(#paint69_linear_538_3800)"/>
<path opacity="0.25" d="M114.751 51.0794C115.97 49.1136 117.914 46.013 118.547 45.2619C118.547 45.2619 118.547 45.2619 118.532 45.2619C117.899 46.013 115.955 49.0976 114.751 51.0794C114.149 52.0224 114.427 53.285 115.337 53.9083C115.739 54.18 116.124 54.4197 116.279 54.4837C116.109 54.4197 115.739 54.18 115.337 53.9083C114.427 53.285 114.165 52.0224 114.751 51.0794Z" fill="url(#paint70_linear_538_3800)"/>
<path opacity="0.25" d="M116.681 53.6526C116.558 53.9243 116.465 54.212 116.357 54.4837C116.357 54.4517 116.419 54.2919 116.511 54.0841C116.573 53.9563 116.619 53.7964 116.681 53.6526C117.36 51.3352 120.524 47.2117 118.98 45.2939C118.842 45.2779 118.703 45.2619 118.548 45.2459C118.687 45.2619 118.826 45.2619 118.965 45.2939C120.508 47.2117 117.345 51.3352 116.681 53.6526Z" fill="url(#paint71_linear_538_3800)"/>
<path opacity="0.25" d="M116.681 53.6526C116.558 53.9243 116.465 54.212 116.357 54.4837C116.357 54.4517 116.419 54.2919 116.511 54.0841C116.573 53.9563 116.619 53.7964 116.681 53.6526C117.36 51.3352 120.524 47.2117 118.98 45.2939C118.842 45.2779 118.703 45.2619 118.548 45.2459C118.687 45.2619 118.826 45.2619 118.965 45.2939C120.508 47.2117 117.345 51.3352 116.681 53.6526Z" fill="url(#paint72_linear_538_3800)"/>
<path opacity="0.25" d="M116.681 53.6526C116.558 53.9243 116.465 54.212 116.357 54.4837C116.357 54.4517 116.419 54.2919 116.511 54.0841C116.573 53.9563 116.619 53.7964 116.681 53.6526C117.36 51.3352 120.524 47.2117 118.98 45.2939C118.842 45.2779 118.703 45.2619 118.548 45.2459C118.687 45.2619 118.826 45.2619 118.965 45.2939C120.508 47.2117 117.345 51.3352 116.681 53.6526Z" fill="url(#paint73_linear_538_3800)"/>
<path d="M116.682 53.6526C117.345 51.3352 120.509 47.2117 118.966 45.2939C118.827 45.2779 118.688 45.2619 118.549 45.2459C117.916 45.9971 115.972 49.0976 114.753 51.0635C114.166 52.0224 114.429 53.269 115.339 53.8923C115.725 54.164 116.111 54.4038 116.281 54.4677C116.327 54.4837 116.358 54.4837 116.358 54.4677C116.466 54.212 116.558 53.9403 116.682 53.6526Z" fill="#A4A4A3"/>
<path opacity="0.25" d="M116.682 53.6526C117.345 51.3352 120.509 47.2117 118.966 45.2939C118.827 45.2779 118.688 45.2619 118.549 45.2459C117.916 45.9971 115.972 49.0976 114.753 51.0635C114.166 52.0224 114.429 53.269 115.339 53.8923C115.725 54.164 116.111 54.4038 116.281 54.4677C116.327 54.4837 116.358 54.4837 116.358 54.4677C116.466 54.212 116.558 53.9403 116.682 53.6526Z" fill="url(#paint74_linear_538_3800)"/>
<path opacity="0.25" d="M116.682 53.6526C117.345 51.3352 120.509 47.2117 118.966 45.2939C118.827 45.2779 118.688 45.2619 118.549 45.2459C117.916 45.9971 115.972 49.0976 114.753 51.0635C114.166 52.0224 114.429 53.269 115.339 53.8923C115.725 54.164 116.111 54.4038 116.281 54.4677C116.327 54.4837 116.358 54.4837 116.358 54.4677C116.466 54.212 116.558 53.9403 116.682 53.6526Z" fill="url(#paint75_linear_538_3800)"/>
<path opacity="0.25" d="M116.682 53.6526C117.345 51.3352 120.509 47.2117 118.966 45.2939C118.827 45.2779 118.688 45.2619 118.549 45.2459C117.916 45.9971 115.972 49.0976 114.753 51.0635C114.166 52.0224 114.429 53.269 115.339 53.8923C115.725 54.164 116.111 54.4038 116.281 54.4677C116.327 54.4837 116.358 54.4837 116.358 54.4677C116.466 54.212 116.558 53.9403 116.682 53.6526Z" fill="url(#paint76_linear_538_3800)"/>
<path d="M88.5627 79.2562C88.501 79.2562 88.4701 79.2402 88.4238 79.2243C88.4084 79.2243 88.4084 79.2243 88.3929 79.2402C88.4547 79.2402 88.501 79.2402 88.5627 79.2562Z" fill="#1B2551"/>
<path d="M88.3622 79.2403C88.4393 79.2403 88.5011 79.2562 88.5782 79.2562L88.5628 79.2562C88.5011 79.2562 88.4548 79.2403 88.4085 79.2403C88.393 79.2403 88.3776 79.2403 88.3622 79.2403Z" fill="#1B2551"/>
<defs>
<linearGradient id="paint0_linear_538_3800" x1="86.84" y1="-1.58914" x2="91.5296" y2="52.1912" gradientUnits="userSpaceOnUse">
<stop stop-color="#7085C2"/>
<stop offset="1" stop-color="#1B2551"/>
</linearGradient>
<linearGradient id="paint1_linear_538_3800" x1="0.0187821" y1="58.6379" x2="136.624" y2="58.6379" gradientUnits="userSpaceOnUse">
<stop stop-color="white" stop-opacity="0"/>
<stop offset="1"/>
</linearGradient>
<linearGradient id="paint2_linear_538_3800" x1="-2.32547" y1="74.0711" x2="138.782" y2="74.0711" gradientUnits="userSpaceOnUse">
<stop stop-color="white" stop-opacity="0"/>
<stop offset="1"/>
</linearGradient>
<linearGradient id="paint3_linear_538_3800" x1="0.0533622" y1="64.6364" x2="136.617" y2="64.6364" gradientUnits="userSpaceOnUse">
<stop stop-color="white" stop-opacity="0"/>
<stop offset="1"/>
</linearGradient>
<linearGradient id="paint4_linear_538_3800" x1="0.0648388" y1="62.0346" x2="136.622" y2="62.0346" gradientUnits="userSpaceOnUse">
<stop stop-color="white" stop-opacity="0"/>
<stop offset="1"/>
</linearGradient>
<linearGradient id="paint5_linear_538_3800" x1="0.00506332" y1="45.2124" x2="136.625" y2="45.2124" gradientUnits="userSpaceOnUse">
<stop stop-color="white" stop-opacity="0"/>
<stop offset="1"/>
</linearGradient>
<linearGradient id="paint6_linear_538_3800" x1="0.0201601" y1="66.5234" x2="136.621" y2="66.5234" gradientUnits="userSpaceOnUse">
<stop stop-color="white" stop-opacity="0"/>
<stop offset="1"/>
</linearGradient>
<linearGradient id="paint7_linear_538_3800" x1="0.0155691" y1="74.7522" x2="136.623" y2="74.7522" gradientUnits="userSpaceOnUse">
<stop stop-color="white" stop-opacity="0"/>
<stop offset="1"/>
</linearGradient>
<linearGradient id="paint8_linear_538_3800" x1="0.00993905" y1="66.1138" x2="136.62" y2="66.1138" gradientUnits="userSpaceOnUse">
<stop stop-color="white" stop-opacity="0"/>
<stop offset="1"/>
</linearGradient>
<linearGradient id="paint9_linear_538_3800" x1="0.0136322" y1="50.8266" x2="136.624" y2="50.8266" gradientUnits="userSpaceOnUse">
<stop stop-color="white" stop-opacity="0"/>
<stop offset="1"/>
</linearGradient>
<linearGradient id="paint10_linear_538_3800" x1="0.010348" y1="62.1294" x2="136.621" y2="62.1294" gradientUnits="userSpaceOnUse">
<stop stop-color="white" stop-opacity="0"/>
<stop offset="1"/>
</linearGradient>
<linearGradient id="paint11_linear_538_3800" x1="0.017897" y1="73.7249" x2="136.62" y2="73.7249" gradientUnits="userSpaceOnUse">
<stop stop-color="white" stop-opacity="0"/>
<stop offset="1"/>
</linearGradient>
<linearGradient id="paint12_linear_538_3800" x1="0.0161072" y1="75.3308" x2="136.619" y2="75.3308" gradientUnits="userSpaceOnUse">
<stop stop-color="white" stop-opacity="0"/>
<stop offset="1"/>
</linearGradient>
<linearGradient id="paint13_linear_538_3800" x1="0.0151657" y1="59.5817" x2="136.623" y2="59.5817" gradientUnits="userSpaceOnUse">
<stop stop-color="white" stop-opacity="0"/>
<stop offset="1"/>
</linearGradient>
<linearGradient id="paint14_linear_538_3800" x1="0.0137185" y1="98.0153" x2="136.625" y2="98.0153" gradientUnits="userSpaceOnUse">
<stop stop-color="white" stop-opacity="0"/>
<stop offset="1"/>
</linearGradient>
<linearGradient id="paint15_linear_538_3800" x1="0.00785923" y1="67.9755" x2="136.622" y2="67.9755" gradientUnits="userSpaceOnUse">
<stop stop-color="white" stop-opacity="0"/>
<stop offset="1"/>
</linearGradient>
<linearGradient id="paint16_linear_538_3800" x1="-0.00615345" y1="76.5293" x2="136.63" y2="76.5293" gradientUnits="userSpaceOnUse">
<stop stop-color="white" stop-opacity="0"/>
<stop offset="1"/>
</linearGradient>
<linearGradient id="paint17_linear_538_3800" x1="0.014386" y1="78.0507" x2="136.621" y2="78.0507" gradientUnits="userSpaceOnUse">
<stop stop-color="white" stop-opacity="0"/>
<stop offset="1"/>
</linearGradient>
<linearGradient id="paint18_linear_538_3800" x1="0.0127268" y1="56.8172" x2="136.623" y2="56.8172" gradientUnits="userSpaceOnUse">
<stop stop-color="white" stop-opacity="0"/>
<stop offset="1"/>
</linearGradient>
<linearGradient id="paint19_linear_538_3800" x1="-0.055472" y1="64.658" x2="136.634" y2="64.658" gradientUnits="userSpaceOnUse">
<stop stop-color="white" stop-opacity="0"/>
<stop offset="1"/>
</linearGradient>
<linearGradient id="paint20_linear_538_3800" x1="-0.0181634" y1="59.3207" x2="136.626" y2="59.3207" gradientUnits="userSpaceOnUse">
<stop stop-color="white" stop-opacity="0"/>
<stop offset="1"/>
</linearGradient>
<linearGradient id="paint21_linear_538_3800" x1="0.0121153" y1="86.1238" x2="136.623" y2="86.1238" gradientUnits="userSpaceOnUse">
<stop stop-color="white" stop-opacity="0"/>
<stop offset="1"/>
</linearGradient>
<linearGradient id="paint22_linear_538_3800" x1="0.0133811" y1="70.9076" x2="136.623" y2="70.9076" gradientUnits="userSpaceOnUse">
<stop stop-color="white" stop-opacity="0"/>
<stop offset="1"/>
</linearGradient>
<linearGradient id="paint23_linear_538_3800" x1="0.011609" y1="74.3947" x2="136.621" y2="74.3947" gradientUnits="userSpaceOnUse">
<stop stop-color="white" stop-opacity="0"/>
<stop offset="1"/>
</linearGradient>
<linearGradient id="paint24_linear_538_3800" x1="121.013" y1="62.3221" x2="152.198" y2="62.3221" gradientUnits="userSpaceOnUse">
<stop stop-color="white" stop-opacity="0"/>
<stop offset="1"/>
</linearGradient>
<linearGradient id="paint25_linear_538_3800" x1="-3.25268" y1="47.0255" x2="140.07" y2="47.0255" gradientUnits="userSpaceOnUse">
<stop stop-color="white" stop-opacity="0"/>
<stop offset="1"/>
</linearGradient>
<linearGradient id="paint26_linear_538_3800" x1="0.00673193" y1="50.0957" x2="136.622" y2="50.0957" gradientUnits="userSpaceOnUse">
<stop stop-color="white" stop-opacity="0"/>
<stop offset="1"/>
</linearGradient>
<linearGradient id="paint27_linear_538_3800" x1="98.1914" y1="65.4017" x2="103.043" y2="73.5146" gradientUnits="userSpaceOnUse">
<stop stop-color="white" stop-opacity="0"/>
<stop offset="1"/>
</linearGradient>
<linearGradient id="paint28_linear_538_3800" x1="111.559" y1="57.3418" x2="116.331" y2="65.5997" gradientUnits="userSpaceOnUse">
<stop stop-color="white" stop-opacity="0"/>
<stop offset="1"/>
</linearGradient>
<linearGradient id="paint29_linear_538_3800" x1="98.3624" y1="65.3001" x2="103.213" y2="73.4129" gradientUnits="userSpaceOnUse">
<stop stop-color="white" stop-opacity="0"/>
<stop offset="1"/>
</linearGradient>
<linearGradient id="paint30_linear_538_3800" x1="0.0234168" y1="62.2782" x2="136.618" y2="62.2782" gradientUnits="userSpaceOnUse">
<stop stop-color="white" stop-opacity="0"/>
<stop offset="1"/>
</linearGradient>
<linearGradient id="paint31_linear_538_3800" x1="112.058" y1="57.1094" x2="116.909" y2="65.2226" gradientUnits="userSpaceOnUse">
<stop stop-color="white" stop-opacity="0"/>
<stop offset="1"/>
</linearGradient>
<linearGradient id="paint32_linear_538_3800" x1="-3.77943" y1="65.5432" x2="137.356" y2="65.5432" gradientUnits="userSpaceOnUse">
<stop stop-color="white" stop-opacity="0"/>
<stop offset="1"/>
</linearGradient>
<linearGradient id="paint33_linear_538_3800" x1="110.28" y1="58.0918" x2="115.05" y2="66.346" gradientUnits="userSpaceOnUse">
<stop stop-color="white" stop-opacity="0"/>
<stop offset="1"/>
</linearGradient>
<linearGradient id="paint34_linear_538_3800" x1="0.000254292" y1="74.3886" x2="136.624" y2="74.3886" gradientUnits="userSpaceOnUse">
<stop stop-color="white" stop-opacity="0"/>
<stop offset="1"/>
</linearGradient>
<linearGradient id="paint35_linear_538_3800" x1="96.1172" y1="66.6414" x2="100.968" y2="74.7541" gradientUnits="userSpaceOnUse">
<stop stop-color="white" stop-opacity="0"/>
<stop offset="1"/>
</linearGradient>
<linearGradient id="paint36_linear_538_3800" x1="0.0126749" y1="65.6123" x2="136.624" y2="65.6123" gradientUnits="userSpaceOnUse">
<stop stop-color="white" stop-opacity="0"/>
<stop offset="1"/>
</linearGradient>
<linearGradient id="paint37_linear_538_3800" x1="105.42" y1="61.0802" x2="110.272" y2="69.1928" gradientUnits="userSpaceOnUse">
<stop stop-color="white" stop-opacity="0"/>
<stop offset="1"/>
</linearGradient>
<linearGradient id="paint38_linear_538_3800" x1="96.03" y1="68.4475" x2="99.9887" y2="75.3415" gradientUnits="userSpaceOnUse">
<stop stop-color="white" stop-opacity="0"/>
<stop offset="0.0852" stop-color="#F5F5F5" stop-opacity="0.0852"/>
<stop offset="0.2309" stop-color="#DADADA" stop-opacity="0.2309"/>
<stop offset="0.4194" stop-color="#ADADAD" stop-opacity="0.4194"/>
<stop offset="0.6433" stop-color="#707070" stop-opacity="0.6433"/>
<stop offset="0.8944" stop-color="#232323" stop-opacity="0.8944"/>
<stop offset="1"/>
</linearGradient>
<linearGradient id="paint39_linear_538_3800" x1="-0.00805724" y1="73.2592" x2="136.628" y2="73.2592" gradientUnits="userSpaceOnUse">
<stop stop-color="white" stop-opacity="0"/>
<stop offset="1"/>
</linearGradient>
<linearGradient id="paint40_linear_538_3800" x1="96.3111" y1="68.4156" x2="100.329" y2="75.1355" gradientUnits="userSpaceOnUse">
<stop stop-color="white" stop-opacity="0"/>
<stop offset="0.0852" stop-color="#F5F5F5" stop-opacity="0.0852"/>
<stop offset="0.2309" stop-color="#DADADA" stop-opacity="0.2309"/>
<stop offset="0.4194" stop-color="#ADADAD" stop-opacity="0.4194"/>
<stop offset="0.6433" stop-color="#707070" stop-opacity="0.6433"/>
<stop offset="0.8944" stop-color="#232323" stop-opacity="0.8944"/>
<stop offset="1"/>
</linearGradient>
<linearGradient id="paint41_linear_538_3800" x1="0.00966209" y1="73.8026" x2="136.62" y2="73.8026" gradientUnits="userSpaceOnUse">
<stop stop-color="white" stop-opacity="0"/>
<stop offset="1"/>
</linearGradient>
<linearGradient id="paint42_linear_538_3800" x1="91.7251" y1="71.1586" x2="95.7423" y2="77.877" gradientUnits="userSpaceOnUse">
<stop stop-color="white" stop-opacity="0"/>
<stop offset="0.0852" stop-color="#F5F5F5" stop-opacity="0.0852"/>
<stop offset="0.2309" stop-color="#DADADA" stop-opacity="0.2309"/>
<stop offset="0.4194" stop-color="#ADADAD" stop-opacity="0.4194"/>
<stop offset="0.6433" stop-color="#707070" stop-opacity="0.6433"/>
<stop offset="0.8944" stop-color="#232323" stop-opacity="0.8944"/>
<stop offset="1"/>
</linearGradient>
<linearGradient id="paint43_linear_538_3800" x1="87.3505" y1="73.7155" x2="91.3014" y2="80.5527" gradientUnits="userSpaceOnUse">
<stop stop-color="white" stop-opacity="0"/>
<stop offset="0.0852" stop-color="#F5F5F5" stop-opacity="0.0852"/>
<stop offset="0.2309" stop-color="#DADADA" stop-opacity="0.2309"/>
<stop offset="0.4194" stop-color="#ADADAD" stop-opacity="0.4194"/>
<stop offset="0.6433" stop-color="#707070" stop-opacity="0.6433"/>
<stop offset="0.8944" stop-color="#232323" stop-opacity="0.8944"/>
<stop offset="1"/>
</linearGradient>
<linearGradient id="paint44_linear_538_3800" x1="87.3757" y1="73.6871" x2="91.3371" y2="80.5841" gradientUnits="userSpaceOnUse">
<stop stop-color="white" stop-opacity="0"/>
<stop offset="0.0852" stop-color="#F5F5F5" stop-opacity="0.0852"/>
<stop offset="0.2309" stop-color="#DADADA" stop-opacity="0.2309"/>
<stop offset="0.4194" stop-color="#ADADAD" stop-opacity="0.4194"/>
<stop offset="0.6433" stop-color="#707070" stop-opacity="0.6433"/>
<stop offset="0.8944" stop-color="#232323" stop-opacity="0.8944"/>
<stop offset="1"/>
</linearGradient>
<linearGradient id="paint45_linear_538_3800" x1="87.2642" y1="73.8357" x2="91.1664" y2="80.593" gradientUnits="userSpaceOnUse">
<stop stop-color="white" stop-opacity="0"/>
<stop offset="0.0852" stop-color="#F5F5F5" stop-opacity="0.0852"/>
<stop offset="0.2309" stop-color="#DADADA" stop-opacity="0.2309"/>
<stop offset="0.4194" stop-color="#ADADAD" stop-opacity="0.4194"/>
<stop offset="0.6433" stop-color="#707070" stop-opacity="0.6433"/>
<stop offset="0.8944" stop-color="#232323" stop-opacity="0.8944"/>
<stop offset="1"/>
</linearGradient>
<linearGradient id="paint46_linear_538_3800" x1="0.0134973" y1="49.0174" x2="136.624" y2="49.0174" gradientUnits="userSpaceOnUse">
<stop stop-color="white" stop-opacity="0"/>
<stop offset="1"/>
</linearGradient>
<linearGradient id="paint47_linear_538_3800" x1="76.1189" y1="45.4124" x2="71.3298" y2="54.0466" gradientUnits="userSpaceOnUse">
<stop stop-color="white" stop-opacity="0"/>
<stop offset="0.1354" stop-color="white" stop-opacity="0.1354"/>
<stop offset="1" stop-color="white"/>
</linearGradient>
<linearGradient id="paint48_linear_538_3800" x1="76.1189" y1="45.4124" x2="71.3298" y2="54.0466" gradientUnits="userSpaceOnUse">
<stop stop-color="white" stop-opacity="0"/>
<stop offset="0.1354" stop-color="white" stop-opacity="0.1354"/>
<stop offset="1" stop-color="white"/>
</linearGradient>
<linearGradient id="paint49_linear_538_3800" x1="134.781" y1="65.158" x2="130.538" y2="62.4165" gradientUnits="userSpaceOnUse">
<stop stop-color="white" stop-opacity="0"/>
<stop offset="0.1354" stop-color="white" stop-opacity="0.1354"/>
<stop offset="1" stop-color="white"/>
</linearGradient>
<linearGradient id="paint50_linear_538_3800" x1="136.901" y1="61.8762" x2="132.658" y2="59.1346" gradientUnits="userSpaceOnUse">
<stop stop-color="white" stop-opacity="0"/>
<stop offset="0.1354" stop-color="white" stop-opacity="0.1354"/>
<stop offset="1" stop-color="white"/>
</linearGradient>
<linearGradient id="paint51_linear_538_3800" x1="0.0109226" y1="64.2207" x2="136.621" y2="64.2207" gradientUnits="userSpaceOnUse">
<stop stop-color="white" stop-opacity="0"/>
<stop offset="1"/>
</linearGradient>
<linearGradient id="paint52_linear_538_3800" x1="134.765" y1="65.175" x2="130.522" y2="62.4335" gradientUnits="userSpaceOnUse">
<stop stop-color="white" stop-opacity="0"/>
<stop offset="0.1354" stop-color="white" stop-opacity="0.1354"/>
<stop offset="1" stop-color="white"/>
</linearGradient>
<linearGradient id="paint53_linear_538_3800" x1="0.00344761" y1="61.679" x2="136.624" y2="61.679" gradientUnits="userSpaceOnUse">
<stop stop-color="white" stop-opacity="0"/>
<stop offset="1"/>
</linearGradient>
<linearGradient id="paint54_linear_538_3800" x1="136.806" y1="62.0263" x2="132.562" y2="59.2844" gradientUnits="userSpaceOnUse">
<stop stop-color="white" stop-opacity="0"/>
<stop offset="0.1354" stop-color="white" stop-opacity="0.1354"/>
<stop offset="1" stop-color="white"/>
</linearGradient>
<linearGradient id="paint55_linear_538_3800" x1="0.0128809" y1="63.828" x2="136.622" y2="63.828" gradientUnits="userSpaceOnUse">
<stop stop-color="white" stop-opacity="0"/>
<stop offset="1"/>
</linearGradient>
<linearGradient id="paint56_linear_538_3800" x1="134.721" y1="65.2489" x2="130.479" y2="62.5079" gradientUnits="userSpaceOnUse">
<stop stop-color="white" stop-opacity="0"/>
<stop offset="0.1354" stop-color="white" stop-opacity="0.1354"/>
<stop offset="1" stop-color="white"/>
</linearGradient>
<linearGradient id="paint57_linear_538_3800" x1="0.0136062" y1="70.1895" x2="136.623" y2="70.1895" gradientUnits="userSpaceOnUse">
<stop stop-color="white" stop-opacity="0"/>
<stop offset="1"/>
</linearGradient>
<linearGradient id="paint58_linear_538_3800" x1="73.0999" y1="68.9608" x2="76.7019" y2="71.5449" gradientUnits="userSpaceOnUse">
<stop stop-color="white" stop-opacity="0"/>
<stop offset="0.1354" stop-color="white" stop-opacity="0.1354"/>
<stop offset="1" stop-color="white"/>
</linearGradient>
<linearGradient id="paint59_linear_538_3800" x1="73.0999" y1="68.9608" x2="76.7019" y2="71.5449" gradientUnits="userSpaceOnUse">
<stop stop-color="white" stop-opacity="0"/>
<stop offset="0.1354" stop-color="white" stop-opacity="0.1354"/>
<stop offset="1" stop-color="white"/>
</linearGradient>
<linearGradient id="paint60_linear_538_3800" x1="73.0999" y1="68.9608" x2="76.7019" y2="71.5449" gradientUnits="userSpaceOnUse">
<stop stop-color="white" stop-opacity="0"/>
<stop offset="0.1354" stop-color="white" stop-opacity="0.1354"/>
<stop offset="1" stop-color="white"/>
</linearGradient>
<linearGradient id="paint61_linear_538_3800" x1="77.116" y1="74.7341" x2="79.2383" y2="76.9549" gradientUnits="userSpaceOnUse">
<stop stop-color="white" stop-opacity="0"/>
<stop offset="0.1354" stop-color="white" stop-opacity="0.1354"/>
<stop offset="1" stop-color="white"/>
</linearGradient>
<linearGradient id="paint62_linear_538_3800" x1="77.116" y1="74.7341" x2="79.2383" y2="76.9549" gradientUnits="userSpaceOnUse">
<stop stop-color="white" stop-opacity="0"/>
<stop offset="0.1354" stop-color="white" stop-opacity="0.1354"/>
<stop offset="1" stop-color="white"/>
</linearGradient>
<linearGradient id="paint63_linear_538_3800" x1="77.116" y1="74.7341" x2="79.2383" y2="76.9549" gradientUnits="userSpaceOnUse">
<stop stop-color="white" stop-opacity="0"/>
<stop offset="0.1354" stop-color="white" stop-opacity="0.1354"/>
<stop offset="1" stop-color="white"/>
</linearGradient>
<linearGradient id="paint64_linear_538_3800" x1="119.626" y1="54.3737" x2="114.371" y2="54.3737" gradientUnits="userSpaceOnUse">
<stop stop-color="white" stop-opacity="0"/>
<stop offset="0.1354" stop-color="white" stop-opacity="0.1354"/>
<stop offset="1" stop-color="white"/>
</linearGradient>
<linearGradient id="paint65_linear_538_3800" x1="0.0641564" y1="54.2946" x2="136.615" y2="54.2946" gradientUnits="userSpaceOnUse">
<stop stop-color="white" stop-opacity="0"/>
<stop offset="1"/>
</linearGradient>
<linearGradient id="paint66_linear_538_3800" x1="119.518" y1="54.2946" x2="114.441" y2="54.2946" gradientUnits="userSpaceOnUse">
<stop stop-color="white" stop-opacity="0"/>
<stop offset="0.1354" stop-color="white" stop-opacity="0.1354"/>
<stop offset="1" stop-color="white"/>
</linearGradient>
<linearGradient id="paint67_linear_538_3800" x1="-5.34663" y1="54.4923" x2="137.559" y2="54.4923" gradientUnits="userSpaceOnUse">
<stop stop-color="white" stop-opacity="0"/>
<stop offset="1"/>
</linearGradient>
<linearGradient id="paint68_linear_538_3800" x1="119.667" y1="54.4923" x2="114.353" y2="54.4923" gradientUnits="userSpaceOnUse">
<stop stop-color="white" stop-opacity="0"/>
<stop offset="0.1354" stop-color="white" stop-opacity="0.1354"/>
<stop offset="1" stop-color="white"/>
</linearGradient>
<linearGradient id="paint69_linear_538_3800" x1="0.0133093" y1="49.8713" x2="136.622" y2="49.8713" gradientUnits="userSpaceOnUse">
<stop stop-color="white" stop-opacity="0"/>
<stop offset="1"/>
</linearGradient>
<linearGradient id="paint70_linear_538_3800" x1="119.51" y1="49.8713" x2="114.43" y2="49.8713" gradientUnits="userSpaceOnUse">
<stop stop-color="white" stop-opacity="0"/>
<stop offset="0.1354" stop-color="white" stop-opacity="0.1354"/>
<stop offset="1" stop-color="white"/>
</linearGradient>
<linearGradient id="paint71_linear_538_3800" x1="0.00966797" y1="49.875" x2="136.624" y2="49.875" gradientUnits="userSpaceOnUse">
<stop stop-color="white" stop-opacity="0"/>
<stop offset="1"/>
</linearGradient>
<linearGradient id="paint72_linear_538_3800" x1="119.52" y1="49.875" x2="114.44" y2="49.875" gradientUnits="userSpaceOnUse">
<stop stop-color="white" stop-opacity="0"/>
<stop offset="0.1354" stop-color="white" stop-opacity="0.1354"/>
<stop offset="1" stop-color="white"/>
</linearGradient>
<linearGradient id="paint73_linear_538_3800" x1="119.511" y1="49.875" x2="114.431" y2="49.875" gradientUnits="userSpaceOnUse">
<stop stop-color="white" stop-opacity="0"/>
<stop offset="0.1354" stop-color="white" stop-opacity="0.1354"/>
<stop offset="1" stop-color="white"/>
</linearGradient>
<linearGradient id="paint74_linear_538_3800" x1="0.0143234" y1="49.88" x2="136.624" y2="49.88" gradientUnits="userSpaceOnUse">
<stop stop-color="white" stop-opacity="0"/>
<stop offset="1"/>
</linearGradient>
<linearGradient id="paint75_linear_538_3800" x1="119.52" y1="49.88" x2="114.441" y2="49.88" gradientUnits="userSpaceOnUse">
<stop stop-color="white" stop-opacity="0"/>
<stop offset="0.1354" stop-color="white" stop-opacity="0.1354"/>
<stop offset="1" stop-color="white"/>
</linearGradient>
<linearGradient id="paint76_linear_538_3800" x1="119.512" y1="49.88" x2="114.432" y2="49.88" gradientUnits="userSpaceOnUse">
<stop stop-color="white" stop-opacity="0"/>
<stop offset="0.1354" stop-color="white" stop-opacity="0.1354"/>
<stop offset="1" stop-color="white"/>
</linearGradient>
</defs>
</svg>
